<svg width="68" height="68" viewBox="0 0 68 68" fill="none" xmlns="http://www.w3.org/2000/svg">

<g id="Icons" clip-path="url(#clip0_1221_4672)">

<g id="slide-end">
<g id="Frame 1948763435">
<g id="Frame 1948763658">
<g id="Frame 1948763655">
<g id="Frame 1948763651">
<g id="Frame 1948763616">

<g id="icon/plans">
<g id="Group 1261164318">
<path id="Exclude" d="M54.7351 11.3575C56.2262 11.3482 57.4426 12.5499 57.4519 14.0411L57.7468 61.2901C57.756 62.7812 56.5543 63.9976 55.0632 64.0069L17.2644 64.2422C15.7732 64.2515 14.5568 63.0498 14.5476 61.5586L14.2956 21.21C14.2626 15.9083 18.534 11.5831 23.8356 11.5499L54.7351 11.3575ZM19.8435 18.1494C19.8435 22.0244 24.5286 23.965 27.2686 21.2248C30.0085 18.4847 28.0679 13.7999 24.1929 13.7999C21.7908 13.7999 19.8435 15.7472 19.8435 18.1494Z" fill="url(#paint0_radial_1221_4672)"/>
<foreignObject x="-8.365" y="-11.2903" width="74.3296" height="83.7788"><div xmlns="http://www.w3.org/1999/xhtml" style="backdrop-filter:blur(7.78px);clip-path:url(#bgblur_1_1221_4672_clip_path);height:100%;width:100%"></div></foreignObject><g id="Exclude_2" data-figma-bg-blur-radius="15.5647">
<mask id="path-3-inside-1_1221_4672" fill="white">
<path d="M48.3745 4.27441C49.4928 4.27441 50.3998 5.18054 50.3999 6.29883V54.8994C50.3997 56.0176 49.4928 56.9238 48.3745 56.9238H9.22412C8.10606 56.9236 7.19992 56.0175 7.19971 54.8994V24.3356C7.19971 22.1873 8.0531 20.1271 9.57214 18.608L21.5333 6.64685C23.0524 5.12781 25.1126 4.27441 27.2609 4.27441H48.3745ZM9.22412 4.27441C8.10599 4.27463 7.19981 5.18067 7.19971 6.29883C7.19971 5.18078 8.10607 4.27441 9.22412 4.27441Z"/>
</mask>
<path d="M48.3745 4.27441C49.4928 4.27441 50.3998 5.18054 50.3999 6.29883V54.8994C50.3997 56.0176 49.4928 56.9238 48.3745 56.9238H9.22412C8.10606 56.9236 7.19992 56.0175 7.19971 54.8994V24.3356C7.19971 22.1873 8.0531 20.1271 9.57214 18.608L21.5333 6.64685C23.0524 5.12781 25.1126 4.27441 27.2609 4.27441H48.3745ZM9.22412 4.27441C8.10599 4.27463 7.19981 5.18067 7.19971 6.29883C7.19971 5.18078 8.10607 4.27441 9.22412 4.27441Z" fill="url(#paint1_linear_1221_4672)" fill-opacity="0.4"/>
<path d="M48.3745 4.27441V2.60677V2.60677V4.27441ZM50.3999 6.29883H52.0676V6.29867L50.3999 6.29883ZM50.3999 54.8994L52.0676 54.8997V54.8994H50.3999ZM9.22412 56.9238L9.2238 58.5915H9.22412V56.9238ZM7.19971 54.8994H5.53206V54.8997L7.19971 54.8994ZM21.5333 6.64685L20.3541 5.46765L21.5333 6.64685ZM48.3745 4.27441V5.94206C48.5727 5.94206 48.7322 6.10248 48.7323 6.29899L50.3999 6.29883L52.0676 6.29867C52.0674 4.2586 50.4129 2.60677 48.3745 2.60677V4.27441ZM50.3999 6.29883H48.7323V54.8994H50.3999H52.0676V6.29883H50.3999ZM50.3999 54.8994L48.7323 54.8991C48.7322 55.0958 48.5725 55.2562 48.3745 55.2562V56.9238V58.5915C50.413 58.5915 52.0672 56.9394 52.0676 54.8997L50.3999 54.8994ZM48.3745 56.9238V55.2562H9.22412V56.9238V58.5915H48.3745V56.9238ZM9.22412 56.9238L9.22444 55.2562C9.02714 55.2561 8.86739 55.0964 8.86735 54.8991L7.19971 54.8994L5.53206 54.8997C5.53244 56.9386 7.18497 58.5911 9.2238 58.5915L9.22412 56.9238ZM7.19971 54.8994H8.86735V24.3356H7.19971H5.53206V54.8994H7.19971ZM9.57214 18.608L10.7513 19.7872L22.7125 7.82606L21.5333 6.64685L20.3541 5.46765L8.39294 17.4288L9.57214 18.608ZM27.2609 4.27441V5.94206H48.3745V4.27441V2.60677H27.2609V4.27441ZM9.22412 4.27441L9.22381 2.60677C7.18506 2.60715 5.53225 4.25947 5.53206 6.29867L7.19971 6.29883L8.86735 6.29899C8.86737 6.10188 9.02692 5.9421 9.22444 5.94206L9.22412 4.27441ZM7.19971 6.29883H8.86735C8.86735 6.10179 9.02708 5.94206 9.22412 5.94206V4.27441V2.60677C7.18505 2.60677 5.53206 4.25976 5.53206 6.29883H7.19971ZM21.5333 6.64685L22.7125 7.82606C23.9188 6.61975 25.5549 5.94206 27.2609 5.94206V4.27441V2.60677C24.6704 2.60677 22.1859 3.63586 20.3541 5.46765L21.5333 6.64685ZM7.19971 24.3356H8.86735C8.86735 22.6296 9.54505 20.9935 10.7513 19.7872L9.57214 18.608L8.39294 17.4288C6.56115 19.2606 5.53206 21.7451 5.53206 24.3356H7.19971Z" fill="url(#paint2_linear_1221_4672)" fill-opacity="0.5" mask="url(#path-3-inside-1_1221_4672)"/>
</g>
<rect id="Rectangle 12" x="15.5996" y="37.1992" width="27.6" height="3.6" rx="1.8" fill="white"/>
<rect id="Rectangle 14" x="15.5996" y="29.999" width="27.6" height="3.6" rx="1.8" fill="white"/>
<rect id="Rectangle 13" x="15.5996" y="44.3994" width="27.6" height="3.6" rx="1.8" fill="white"/>
</g>
</g>
</g>
</g>
</g>
</g>
</g>
</g>
</g>
<defs>
<clipPath id="bgblur_1_1221_4672_clip_path" transform="translate(8.365 11.2903)"><path d="M48.3745 4.27441C49.4928 4.27441 50.3998 5.18054 50.3999 6.29883V54.8994C50.3997 56.0176 49.4928 56.9238 48.3745 56.9238H9.22412C8.10606 56.9236 7.19992 56.0175 7.19971 54.8994V24.3356C7.19971 22.1873 8.0531 20.1271 9.57214 18.608L21.5333 6.64685C23.0524 5.12781 25.1126 4.27441 27.2609 4.27441H48.3745ZM9.22412 4.27441C8.10599 4.27463 7.19981 5.18067 7.19971 6.29883C7.19971 5.18078 8.10607 4.27441 9.22412 4.27441Z"/>
</clipPath><radialGradient id="paint0_radial_1221_4672" cx="0" cy="0" r="1" gradientUnits="userSpaceOnUse" gradientTransform="translate(37.8627 23.7048) rotate(90) scale(41.6952 36.7311)">
<stop offset="0.338498" stop-color="#FF5636"/>
<stop offset="1" stop-color="#9E5AFF"/>
</radialGradient>
<linearGradient id="paint1_linear_1221_4672" x1="28.2831" y1="56.9238" x2="28.2831" y2="30.5991" gradientUnits="userSpaceOnUse">
<stop stop-color="white"/>
<stop offset="0.447036" stop-color="white"/>
<stop offset="1" stop-color="#EDEFF6" stop-opacity="0.9"/>
</linearGradient>
<linearGradient id="paint2_linear_1221_4672" x1="30.794" y1="2.67497" x2="40.1327" y2="56.2713" gradientUnits="userSpaceOnUse">
<stop stop-color="#F8F5FE" stop-opacity="0"/>
<stop offset="0.505" stop-color="#F8F5FE"/>
<stop offset="1" stop-color="#F8F5FE" stop-opacity="0"/>
</linearGradient>
<clipPath id="clip0_1221_4672">
<rect width="1920" height="1080" fill="white" transform="translate(-1166.4 -644.5)"/>
</clipPath>
</defs>
</svg>
